<svg width="116" height="29" viewBox="0 0 116 29" fill="none" xmlns="http://www.w3.org/2000/svg">
<g clip-path="url(#clip0_1_1176)">
<g clip-path="url(#clip1_1_1176)">
<path fill-rule="evenodd" clip-rule="evenodd" d="M0.692017 26.8358C0.692017 27.6498 1.35202 28.3098 2.16602 28.3098H8.06002C8.87302 28.3098 9.53302 27.6498 9.53302 26.8358V23.7798C9.53302 22.9658 10.193 22.3058 11.007 22.3058H11.853C12.667 22.3058 13.327 21.6458 13.327 20.8318V17.1478C13.327 16.3338 12.667 15.6738 11.853 15.6738H8.17002C7.35602 15.6738 6.69602 16.3338 6.69602 17.1478V17.9938C6.69602 18.8078 6.03602 19.4678 5.22302 19.4678H2.16602C1.35202 19.4678 0.692017 20.1278 0.692017 20.9418V26.8358ZM9.53402 5.57681C9.53402 6.39081 10.194 7.05081 11.008 7.05081H11.854C12.668 7.05081 13.328 7.71081 13.328 8.52381V11.4718C13.328 12.2858 12.668 12.9448 11.854 12.9448H8.90702C8.09302 12.9448 7.43302 12.2848 7.43302 11.4718V10.6258C7.43302 9.81181 6.77302 9.15181 5.95902 9.15181H2.16602C1.35202 9.15181 0.692017 8.49181 0.692017 7.67881V1.78381C0.692017 0.969814 1.35202 0.309814 2.16602 0.309814H8.06002C8.87402 0.309814 9.53402 0.969814 9.53402 1.78381V5.57681ZM21.951 10.6258C21.951 9.81181 22.611 9.15181 23.425 9.15181H27.218C28.032 9.15181 28.692 8.49181 28.692 7.67881V1.78381C28.692 0.969814 28.032 0.309814 27.218 0.309814H21.324C20.51 0.309814 19.85 0.969814 19.85 1.78381V5.57681C19.85 6.39081 19.19 7.05081 18.376 7.05081H17.53C16.716 7.05081 16.056 7.71081 16.056 8.52381V11.4718C16.056 12.2858 16.716 12.9448 17.53 12.9448H20.478C21.291 12.9448 21.951 12.2848 21.951 11.4718V10.6258ZM28.691 26.8358C28.691 27.6498 28.032 28.3098 27.218 28.3098H21.323C20.509 28.3098 19.85 27.6498 19.85 26.8358V23.0428C19.85 22.2288 19.19 21.5688 18.376 21.5688H17.53C16.716 21.5688 16.057 20.9088 16.057 20.0958V17.1478C16.057 16.3338 16.717 15.6748 17.53 15.6748H20.478C21.291 15.6748 21.951 16.3348 21.951 17.1478V17.9938C21.951 18.8078 22.611 19.4678 23.425 19.4678H27.218C28.032 19.4678 28.692 20.1278 28.692 20.9418L28.691 26.8358Z" fill="white"/>
<path d="M39.845 22.8847C39.7 22.8847 39.627 22.7877 39.627 22.6667V6.13973C39.627 5.99373 39.7 5.89673 39.845 5.89673H48.412C51.032 5.89673 53.192 7.78973 53.192 10.9197C53.192 13.8567 51.639 15.5307 49.552 15.9677L53.338 22.5927C53.435 22.7627 53.362 22.8837 53.168 22.8837H50.57C50.511 22.8833 50.4532 22.8673 50.4023 22.8375C50.3514 22.8076 50.3092 22.765 50.28 22.7137L46.494 16.0887H42.538V22.6407C42.538 22.7867 42.441 22.8837 42.295 22.8837H39.845V22.8847ZM42.539 13.7357H46.786C48.63 13.7357 50.28 13.2507 50.28 10.9697C50.28 8.71273 48.533 8.25173 46.786 8.25173H42.539V13.7357ZM55.837 22.8847C55.691 22.8847 55.57 22.7877 55.57 22.6417V10.9937C55.57 10.8487 55.691 10.7517 55.837 10.7517H58.094C58.239 10.7517 58.361 10.8487 58.361 10.9937V22.6417C58.361 22.7877 58.24 22.8847 58.094 22.8847H55.837ZM55.4 7.48473C55.4 6.61073 56.104 5.90773 56.978 5.90773C57.851 5.90773 58.555 6.61073 58.555 7.48473C58.555 8.35873 57.851 9.06173 56.978 9.06173C56.7707 9.06226 56.5654 9.02183 56.3737 8.94278C56.1821 8.86373 56.008 8.7476 55.8614 8.60107C55.7148 8.45454 55.5985 8.28049 55.5193 8.08892C55.4402 7.89735 55.3996 7.69202 55.4 7.48473ZM66.187 28.2967C62.693 28.2967 60.533 26.5487 60.533 23.8067C60.533 23.6617 60.63 23.5647 60.775 23.5647H63.202C63.348 23.5647 63.445 23.6617 63.445 23.8067C63.445 24.9227 64.391 26.1117 66.187 26.1117C67.837 26.1117 69.293 25.4087 69.293 22.9577V20.4337H69.245C68.638 21.6957 67.4 22.8117 65.459 22.8117C62.256 22.8117 60.29 20.7497 60.29 16.8917C60.29 12.9117 62.207 10.5087 65.459 10.5087C67.497 10.5087 68.638 11.5767 69.245 13.1287H69.293V10.9937C69.293 10.8487 69.39 10.7517 69.536 10.7517H71.963C72.108 10.7517 72.205 10.8487 72.205 10.9937V22.9097C72.205 26.8657 69.535 28.2977 66.187 28.2977V28.2967ZM63.202 16.6477C63.202 19.3657 64.537 20.6277 66.357 20.6277C68.031 20.6277 69.293 19.3657 69.293 16.6477C69.293 14.1477 68.031 12.6927 66.357 12.6927C64.537 12.6927 63.202 14.1487 63.202 16.6477ZM76.198 23.1277C75.9907 23.1281 75.7854 23.0876 75.5938 23.0084C75.4023 22.9292 75.2282 22.813 75.0817 22.6664C74.9351 22.5197 74.819 22.3456 74.74 22.154C74.6609 21.9624 74.6205 21.757 74.621 21.5497C74.621 20.6767 75.325 19.9727 76.198 19.9727C77.072 19.9727 77.776 20.6767 77.776 21.5497C77.776 22.4237 77.072 23.1277 76.198 23.1277ZM84.582 23.1277C81.718 23.1277 79.486 20.7497 79.486 16.8907C79.486 13.0567 81.67 10.5087 84.582 10.5087C86.766 10.5087 87.906 11.7707 88.416 13.6637H88.464V6.25973C88.464 6.11373 88.561 6.01673 88.707 6.01673H91.012C91.158 6.01673 91.255 6.11373 91.255 6.25973V22.6417C91.255 22.7877 91.158 22.8847 91.012 22.8847H88.707C88.561 22.8847 88.464 22.7877 88.464 22.6417V20.3857H88.416C87.858 22.0357 86.669 23.1277 84.582 23.1277ZM82.398 16.8907C82.398 19.5607 83.732 20.9437 85.407 20.9437C87.105 20.9437 88.343 19.5597 88.343 16.8907C88.343 14.1487 87.105 12.6927 85.407 12.6927C83.732 12.6927 82.398 14.1487 82.398 16.8907ZM98.546 23.1277C95.003 23.1277 92.892 20.7737 92.892 16.7697C92.892 13.3237 95.004 10.5087 98.546 10.5087C101.968 10.5087 104.031 13.3237 104.031 17.0847C104.031 17.2547 103.958 17.3517 103.812 17.3517H95.804C95.926 19.6817 96.921 20.9437 98.619 20.9437C100.027 20.9437 100.803 20.3607 101.143 19.3177C101.192 19.1717 101.289 19.0987 101.41 19.0987H103.691C103.861 19.0987 103.934 19.1967 103.909 19.3657C103.351 21.4777 101.604 23.1277 98.546 23.1277ZM95.828 16.0657H101.022C101.022 14.0277 100.172 12.6927 98.546 12.6927C97.09 12.6927 96.046 13.7607 95.828 16.0657ZM108.705 22.8847C108.584 22.8847 108.487 22.8357 108.438 22.6907L103.949 10.9457C103.901 10.8237 103.949 10.7517 104.07 10.7517H106.764C106.837 10.7517 106.91 10.7757 106.934 10.8967L109.919 20.0457H109.967L112.904 10.8967C112.928 10.7757 113.001 10.7517 113.073 10.7517H115.767C115.888 10.7517 115.937 10.8237 115.888 10.9457L111.423 22.6907C111.375 22.8357 111.278 22.8847 111.156 22.8847H108.705Z" fill="white"/>
</g>
</g>
<defs>
<clipPath id="clip0_1_1176">
<rect width="116" height="28" fill="white" transform="translate(0 0.309814)"/>
</clipPath>
<clipPath id="clip1_1_1176">
<rect width="116" height="28" fill="white" transform="translate(0 0.309814)"/>
</clipPath>
</defs>
</svg>
